<svg version="1.1" id="Layer_1" xmlns="http://www.w3.org/2000/svg" xmlns:xlink="http://www.w3.org/1999/xlink" x="0px" y="0px" viewBox="0 0 81 27.8" style="enable-background:new 0 0 81 27.8;" xml:space="preserve">
	<style type="text/css">
		.a{fill:#2C3A44;}
		.b{fill:#D9272D;}
	</style>
	<path class="a" d="M3,18.2l2.4-0.4c0.6-0.1,0.7-0.4,0.7-0.7c0-0.7-0.5-1.3-1.7-1.3s-1.8,0.7-1.9,1.6l-2.4-0.5
		c0.2-1.6,1.6-3.3,4.3-3.3c3.1,0,4.3,1.8,4.3,3.8v4.9c0,0.5,0.1,1.2,0.1,1.6H6.4c-0.1-0.3-0.1-0.8-0.1-1.2c-0.5,0.8-1.5,1.5-2.9,1.5
		c-2.1,0-3.4-1.4-3.4-3C0,19.4,1.3,18.4,3,18.2 M6.2,19.9v-0.4L4,19.8c-0.7,0.1-1.2,0.5-1.2,1.3c0,0.6,0.4,1.2,1.3,1.2
		C5.1,22.2,6.2,21.6,6.2,19.9"/>
	<path class="a" d="M12.7,18.9l-3.5-5h3.2c0.3,0.5,1.6,2.4,2,3l2-3h3l-3.5,4.9l3.6,5.1h-3.1l-2.1-3.1
		c-0.4,0.5-1.7,2.5-2,3.1h-3C9.3,23.9,12.7,18.9,12.7,18.9z"/>
	<path class="a" d="M28.6,13.9l2.2,6.4l1.8-6.4h2.7l-3.1,10h-2.7l-2.3-6.8l-2.3,6.8h-2.7l-3.2-10h2.8l1.9,6.4l2.1-6.4
		L28.6,13.9z"/>
	<path class="a" d="M38,18.2l2.4-0.4c0.6-0.1,0.7-0.4,0.7-0.7c0-0.7-0.5-1.3-1.7-1.3s-1.8,0.7-1.9,1.6l-2.4-0.5
		c0.2-1.6,1.6-3.3,4.3-3.3c3.1,0,4.3,1.8,4.3,3.8v4.9c0,0.5,0.1,1.2,0.1,1.6h-2.5c-0.1-0.3-0.1-0.8-0.1-1.2c-0.5,0.8-1.5,1.5-2.9,1.5
		c-2.1,0-3.4-1.4-3.4-3C35,19.4,36.3,18.4,38,18.2 M41.2,19.9v-0.4L39,19.8c-0.7,0.1-1.2,0.5-1.2,1.3c0,0.6,0.4,1.2,1.3,1.2
		C40.1,22.2,41.2,21.6,41.2,19.9"/>
	<path class="a" d="M45.5,27.8l2.3-5.2l-4.2-8.7h3l2.7,5.9l2.4-5.9h2.9l-6.3,13.9H45.5z"/>
	<g transform="translate(56.41 .062)">
		<path class="b" d="M24.6,10.2V6.8l-5.1-2.5v5.1L0,0.1v3.4l22.3,10.6v-5L24.6,10.2z"/>
	</g>
	<path class="b" d="M61.4,12.7v3.4l3.6,1.7l-5.8,6.1H63l6.8-7.2L61.4,12.7z"/>
	<path class="b" d="M78.7,15.9L59.1,6.5v3.4l15.6,7.5L78.7,15.9z"/>
</svg>
