<?xml version="1.0" encoding="utf-8"?>
<!-- Generator: Adobe Illustrator 19.0.0, SVG Export Plug-In . SVG Version: 6.00 Build 0)  -->
<svg version="1.1" id="Layer_1" xmlns="http://www.w3.org/2000/svg" xmlns:xlink="http://www.w3.org/1999/xlink" x="0px" y="0px"
	 viewBox="0 0 192 192" style="enable-background:new 0 0 192 192;" xml:space="preserve">
<style type="text/css">
	.st0{fill:#4A4F54;}
	.st1{fill:#006580;}
</style>
<g id="XMLID_1_">
	<path id="XMLID_11_" class="st0" d="M85.8,148.4c-9.3-0.2-17.2-4.3-20.4-11.5c-3.8-8.6,0.5-19.2,9.8-26.4L57,63.2
		c-21.4,17.7-30.4,43.1-20.2,62.7c8.4,16.1,27.5,24.1,49.1,22.8C85.9,148.6,85.8,148.5,85.8,148.4 M59.3,106.2
		c-3.8,3.7-9.2,4.2-12.2,1.3c-2.9-2.9-2.3-8.3,1.5-12s9.2-4.2,12.2-1.3C63.8,97.2,63.1,102.5,59.3,106.2"/>
	<path id="XMLID_6_" class="st0" d="M155.2,66.2c-12.5-24-49.1-30.1-81.8-13.7c-0.1,0.1-0.3,0.1-0.4,0.2l22.2,49.7
		c11.1-1.1,21,3.1,24.6,11.4c3.1,7.1,0.8,15.4-5.2,22.1c0.8,1.5,1.4,3,1.8,4.6c0.8-0.4,1.5-0.7,2.3-1.1
		C151.3,123.1,167.6,90.3,155.2,66.2 M110.1,66.6c-3.3,4.1-8.7,5.2-11.9,2.6c-3.3-2.6-3.2-8,0.1-12c3.3-4,8.7-5.2,11.9-2.6
		C113.4,57.1,113.4,62.5,110.1,66.6 M124,75.4c-2.9-2.9-2.3-8.3,1.5-12c3.8-3.7,9.2-4.2,12.2-1.3c2.9,2.9,2.3,8.3-1.5,12
		C132.4,77.7,127,78.3,124,75.4 M145.2,96.8c-3.8,3.7-9.2,4.2-12.2,1.3c-2.9-2.9-2.3-8.3,1.5-12c3.8-3.7,9.2-4.2,12.2-1.3
		C149.6,87.8,148.9,93.2,145.2,96.8"/>
	<path id="XMLID_5_" class="st1" d="M109.9,138c-3.3-5.5-7.3-10-11.3-11.5l1.3-0.5l-1.7-4L86,126.9l1.7,4l1.1-0.4
		c-2,4-1.9,10,0.5,15.9c3.6,8.7,19.5,18.2,19.9,24.9C109.3,171.1,117.3,150.6,109.9,138"/>
	<path id="XMLID_4_" class="st1" d="M97.2,118.3L56,26.1l-2.2-5.3l-7.2,2.6l0.8,2.3c0,0.2,0.1,0.3,0.1,0.5l0.7,1.7l0,0l0,0
		l36.7,95.3L97.2,118.3z"/>
</g>
</svg>
