<?xml version="1.0" encoding="utf-8"?>
<!-- Generator: Adobe Illustrator 19.0.0, SVG Export Plug-In . SVG Version: 6.00 Build 0)  -->
<svg version="1.1" id="Layer_1" xmlns="http://www.w3.org/2000/svg" xmlns:xlink="http://www.w3.org/1999/xlink" x="0px" y="0px"
	 viewBox="0 0 192 192" style="enable-background:new 0 0 192 192;" xml:space="preserve">
<style type="text/css">
	.st0{fill:#4A4F54;}
	.st1{fill:#006580;}
</style>
<path id="XMLID_5_" class="st0" d="M118.2,43l-1.4-8H108c0-0.2,0-0.5,0-0.8c0-6.8-5-12.3-11.5-12.3S85,27.4,85,34.2
	c0,0.3,0,0.5,0,0.8h-9.8l-1.4,8H45v126.8l102,0.2V43H118.2z M139,161.9l-86-0.2V51h86V161.9z"/>
<rect x="86.6" y="67.9" class="st1" width="42.8" height="8.6"/>
<rect x="62.8" y="92.7" class="st1" width="66.6" height="8.6"/>
<rect x="62.9" y="117.5" class="st1" width="66.5" height="8.6"/>
<rect x="62.9" y="142.3" class="st1" width="66.5" height="8.6"/>
</svg>
