<?xml version="1.0" encoding="utf-8"?>
<!-- Generator: Adobe Illustrator 19.0.0, SVG Export Plug-In . SVG Version: 6.00 Build 0)  -->
<svg version="1.1" id="Layer_1" xmlns="http://www.w3.org/2000/svg" xmlns:xlink="http://www.w3.org/1999/xlink" x="0px" y="0px"
	 viewBox="0 0 192 192" style="enable-background:new 0 0 192 192;" xml:space="preserve">
<style type="text/css">
	.st0{fill:#4A4F54;}
	.st1{fill:#006580;}
</style>
<path class="st0" d="M142.5,35.5v-5.2h-11.2v5.2H61.9v-5.2H50.7v5.2h-30v126.3h150.7V35.5H142.5z M50.7,43.5v14.6h11.2V43.5h69.4
	v14.6h11.2V43.5h20.9v22.1H28.7V43.5H50.7z M28.7,153.8V73.6h134.7v80.2H28.7z"/>
<rect x="56" y="85" class="st1" width="8.8" height="8.8"/>
<rect x="73.2" y="85" class="st1" width="8.8" height="8.8"/>
<rect x="91.9" y="85" class="st1" width="8.8" height="8.8"/>
<rect x="108.4" y="85" class="st1" width="8.8" height="8.8"/>
<rect x="127" y="85" class="st1" width="8.8" height="8.8"/>
<rect x="143.5" y="85" class="st1" width="8.8" height="8.8"/>
<rect x="56" y="101.8" class="st1" width="8.8" height="8.8"/>
<rect x="38.5" y="101.8" class="st1" width="8.8" height="8.8"/>
<rect x="73.5" y="101.8" class="st1" width="8.8" height="8.8"/>
<rect x="91.9" y="101.8" class="st1" width="8.8" height="8.8"/>
<rect x="108.4" y="101.8" class="st1" width="8.8" height="8.8"/>
<rect x="126.2" y="101.8" class="st1" width="8.8" height="8.8"/>
<rect x="143.5" y="101.8" class="st1" width="8.8" height="8.8"/>
<rect x="56" y="119.1" class="st1" width="8.8" height="8.8"/>
<rect x="38.5" y="119.1" class="st1" width="8.8" height="8.8"/>
<rect x="73.2" y="119.1" class="st1" width="8.8" height="8.8"/>
<rect x="91.9" y="119.1" class="st1" width="8.8" height="8.8"/>
<rect x="108.4" y="119.1" class="st1" width="8.8" height="8.8"/>
<rect x="126.2" y="119.1" class="st1" width="8.8" height="8.8"/>
<rect x="143.5" y="119.1" class="st1" width="8.8" height="8.8"/>
<rect x="56" y="136.7" class="st1" width="8.8" height="8.8"/>
<rect x="38.5" y="136.7" class="st1" width="8.8" height="8.8"/>
<rect x="73.5" y="136.7" class="st1" width="8.8" height="8.8"/>
<rect x="90.9" y="136.7" class="st1" width="8.8" height="8.8"/>
<rect x="108.4" y="136.7" class="st1" width="8.8" height="8.8"/>
<rect x="126" y="136.7" class="st1" width="8.8" height="8.8"/>
<rect x="143.5" y="136.7" class="st1" width="8.8" height="8.8"/>
</svg>
