<?xml version="1.0" encoding="utf-8"?>
<!-- Generator: Adobe Illustrator 24.2.3, SVG Export Plug-In . SVG Version: 6.00 Build 0)  -->
<svg version="1.1" xmlns="http://www.w3.org/2000/svg" xmlns:xlink="http://www.w3.org/1999/xlink" x="0px" y="0px"
	 viewBox="0 0 192 192" style="enable-background:new 0 0 192 192;" xml:space="preserve">
<style type="text/css">
	.st0{opacity:0.4;}
	.st1{clip-path:url(#SVGID_2_);}
	.st2{fill:none;stroke:#000000;stroke-width:0.25;stroke-miterlimit:10;}
	.st3{fill:#DB4437;fill-opacity:0.4;}
	.st4{display:none;}
	.st5{display:inline;fill:none;stroke:#C8C9C7;stroke-miterlimit:10;}
	.st6{fill:#4A4F54;}
	.st7{fill:#006580;}
</style>
<symbol  id="material_x5F_product_x5F_icon_x5F_keylines" viewBox="0 -192 192 192">
	<g class="st0">
		<defs>
			<path id="SVGID_1_" class="st0" d="M0,0v-192h192V0H0z"/>
		</defs>
		<clipPath id="SVGID_2_">
			<use xlink:href="#SVGID_1_"  style="overflow:visible;"/>
		</clipPath>
		<g class="st1">
			<line class="st2" x1="0.2" y1="-0.2" x2="191.7" y2="-191.7"/>
			<g>
				<path d="M191.8-0.2v-191.5H0.2V-0.2H191.8 M192,0H0v-192h192V0L192,0z"/>
			</g>
			<line class="st2" x1="191.7" y1="-0.2" x2="0.2" y2="-191.7"/>
			<line class="st2" x1="124" y1="0" x2="124" y2="-192"/>
			<line class="st2" x1="68" y1="0" x2="68" y2="-192"/>
			<line class="st2" x1="192" y1="-124" x2="0" y2="-124"/>
			<line class="st2" x1="192" y1="-68" x2="0" y2="-68"/>
			<circle class="st2" cx="96" cy="-96" r="40"/>
			<line class="st2" x1="0" y1="-96" x2="192" y2="-96"/>
			<line class="st2" x1="96" y1="0" x2="96" y2="-192"/>
		</g>
		<g class="st1">
			<g>
				<path d="M96-8.2c48.4,0,87.8-39.4,87.8-87.8s-39.4-87.8-87.8-87.8S8.2-144.4,8.2-96S47.6-8.2,96-8.2 M96-8C47.4-8,8-47.4,8-96
					c0-48.6,39.4-88,88-88s88,39.4,88,88C184-47.4,144.6-8,96-8L96-8z"/>
			</g>
		</g>
		<g class="st1">
			<g>
				<path d="M160-20.2c6.5,0,11.8-5.3,11.8-11.8v-128c0-6.5-5.3-11.8-11.8-11.8H32c-6.5,0-11.8,5.3-11.8,11.8v128
					c0,6.5,5.3,11.8,11.8,11.8H160 M160-20H32c-6.6,0-12-5.4-12-12v-128c0-6.6,5.4-12,12-12h128c6.6,0,12,5.4,12,12v128
					C172-25.4,166.6-20,160-20L160-20z"/>
			</g>
		</g>
		<g class="st1">
			<g>
				<path d="M148-8.2c6.5,0,11.8-5.3,11.8-11.8v-152c0-6.5-5.3-11.8-11.8-11.8H44c-6.5,0-11.8,5.3-11.8,11.8v152
					c0,6.5,5.3,11.8,11.8,11.8H148 M148-8H44c-6.6,0-12-5.4-12-12v-152c0-6.6,5.4-12,12-12h104c6.6,0,12,5.4,12,12v152
					C160-13.4,154.6-8,148-8L148-8z"/>
			</g>
		</g>
		<g class="st1">
			<g>
				<path d="M172-32.2c6.5,0,11.8-5.3,11.8-11.8v-104c0-6.5-5.3-11.8-11.8-11.8H20c-6.5,0-11.8,5.3-11.8,11.8v104
					c0,6.5,5.3,11.8,11.8,11.8H172 M172-32H20c-6.6,0-12-5.4-12-12v-104c0-6.6,5.4-12,12-12h152c6.6,0,12,5.4,12,12v104
					C184-37.4,178.6-32,172-32L172-32z"/>
			</g>
		</g>
	</g>
</symbol>
<symbol  id="material_x5F_product_x5F_icon_x5F_trim" viewBox="0 -192 192 192">
	<path class="st3" d="M0,0v-192h192V0H0z M188-188H4V-4h184V-188z"/>
</symbol>
<g id="Gridwork" class="st4">
	
		<use xlink:href="#material_x5F_product_x5F_icon_x5F_keylines"  width="192" height="192" x="0" y="-192" transform="matrix(1 0 0 -1 0.3282 -0.3686)" style="display:inline;overflow:visible;"/>
	
		<use xlink:href="#material_x5F_product_x5F_icon_x5F_trim"  width="192" height="192" id="XMLID_1_" y="-192" transform="matrix(1 0 0 -1 0.3282 -0.3686)" style="display:inline;overflow:visible;"/>
</g>
<g id="Border" class="st4">
	<rect x="20" y="20.1" class="st5" width="151.2" height="151.2"/>
</g>
<g id="Artwork">
	<polygon class="st6" points="155.8,111.2 150.7,113.4 160.5,116.3 96.2,144.2 31.3,125.4 40.3,121.5 35,120 20.9,126.1 96.5,147.9 
		171,115.6 	"/>
	<polyline class="st6" points="170.3,96.1 143.2,90.2 95.3,110.9 46.3,96.9 21.8,106.7 96.5,128.1 170.3,96.1 	"/>
	<path class="st7" d="M94.7,48.3L19.8,80.7l75.8,21.7L170.4,70L94.7,48.3 M94.3,94.5h-6.2l9.4-9.9l-5.8-2.8v-5.5l13.8,6.5L94.3,94.5
		z M113.3,83.9L87.8,71.8v-5.5l32,15.2L113.3,83.9z M119.8,78.8L83.5,61.5V56l31.8,15.1v-8.3l8.3,4v5.5l-3.8-1.8L119.8,78.8z"/>
</g>
</svg>
