<?xml version="1.0" encoding="utf-8"?>
<!-- Generator: Adobe Illustrator 19.0.0, SVG Export Plug-In . SVG Version: 6.00 Build 0)  -->
<svg version="1.1" id="Layer_1" xmlns="http://www.w3.org/2000/svg" xmlns:xlink="http://www.w3.org/1999/xlink" x="0px" y="0px"
	 viewBox="0 0 192 192" style="enable-background:new 0 0 192 192;" xml:space="preserve">
<style type="text/css">
	.st0{fill:#006580;}
	.st1{fill:#4A4F54;}
</style>
<g id="XMLID_7_">
	<path id="XMLID_8_" class="st0" d="M85.1,31.6v150.1h85.8V31.6H85.1z M128,175.9c-3.4,0-6.1-2.6-6.1-5.8c0-3.2,2.7-5.8,6.1-5.8
		c3.4,0,6.1,2.6,6.1,5.8C134.1,173.3,131.4,175.9,128,175.9z M162.9,157.9H93.1V39.6h69.8V157.9z"/>
</g>
<path id="XMLID_4_" class="st1" d="M29.1,136.9V18.6h69.8v7h8v-15H21.1v150.1h58v-23.8H29.1z M64,154.9c-3.4,0-6.1-2.6-6.1-5.8
	s2.7-5.8,6.1-5.8s6.1,2.6,6.1,5.8S67.4,154.9,64,154.9z"/>
</svg>
